# xmcd CD database file
#
# Track frame offsets:
#	150
#	19385
#	43887
#	63062
#
# Disc length: 1165 seconds
#
# Revision: 0
# Processed by: cddbd v1.5PL3 Copyright (c) Steve Scherf et al.
# Submitted via: CDex 1.40Release
#
DISCID=2f048b04
DTITLE=TSUNAMI - カレって時々ブタ
DYEAR=1997
DGENRE=Anime
TTITLE0=カレって時々ブタ
TTITLE1=Hero
TTITLE2=カレって時々ブタ (Backing Track)
TTITLE3=Hero (Backing Track)
EXTD=YEAR: 1997
EXTT0=
EXTT1=
EXTT2=
EXTT3=
PLAYORDER=
